<svg width="13" height="12" viewBox="0 0 13 12" fill="none" xmlns="http://www.w3.org/2000/svg">
<path d="M10.8333 10.2857V10.7143C10.8333 11.4244 10.3483 12 9.75 12H1.08333C0.485017 12 0 11.4244 0 10.7143V3.85714C0 3.14705 0.485017 2.57143 1.08333 2.57143H1.44444V8.14286C1.44444 9.32443 2.25442 10.2857 3.25 10.2857H10.8333ZM13 8.14286V1.28571C13 0.575625 12.515 0 11.9167 0H3.25C2.65168 0 2.16667 0.575625 2.16667 1.28571V8.14286C2.16667 8.85295 2.65168 9.42857 3.25 9.42857H11.9167C12.515 9.42857 13 8.85295 13 8.14286ZM5.77778 2.57143C5.77778 3.28152 5.29276 3.85714 4.69444 3.85714C4.09613 3.85714 3.61111 3.28152 3.61111 2.57143C3.61111 1.86134 4.09613 1.28571 4.69444 1.28571C5.29276 1.28571 5.77778 1.86134 5.77778 2.57143ZM3.61111 6.42857L4.86405 4.94156C4.96981 4.81604 5.1413 4.81604 5.24708 4.94156L6.13889 6L9.19739 2.37013C9.30315 2.24462 9.47463 2.24462 9.58041 2.37013L11.5556 4.71429V7.71429H3.61111V6.42857Z" fill="white"/>
</svg>
