<svg width="13" height="12" viewBox="0 0 13 12" fill="currentColor" xmlns="http://www.w3.org/2000/svg">
  <path d="M11.862 3.00017C11.2112 2.99011 10.6786 3.43032 10.6786 3.95602V6H10.4465V1.87008C10.4465 1.34438 9.9138 0.904176 9.26307 0.914231C8.63248 0.923981 8.12502 1.3399 8.12502 1.85157V6H7.89288V0.95602C7.89288 0.430317 7.36022 -0.00988577 6.7095 0.000168909C6.07891 0.00991891 5.57144 0.425841 5.57144 0.937505V6H5.3393V1.89352C5.3393 1.36782 4.80664 0.927614 4.15592 0.937669C3.52533 0.947419 3.01786 1.36334 3.01786 1.875V7.40607L2.09951 6.38609C1.72248 5.96735 0.996563 5.87475 0.478071 6.1793C-0.0403339 6.48385 -0.154955 7.07016 0.222075 7.48892L3.86675 11.5367C3.99597 11.6802 4.16538 11.797 4.36116 11.8775C4.55693 11.958 4.77351 12 4.9932 12H10.7269C11.3732 12 11.9346 11.6408 12.0827 11.1327L12.8519 8.49221C12.9503 8.15441 13 7.80856 13 7.46154V3.9375C13 3.42584 12.4926 3.00992 11.862 3.00017Z"/>
</svg>
