<svg width="13" height="12" viewBox="0 0 13 12" fill="none" xmlns="http://www.w3.org/2000/svg">
<g clip-path="url(#clip0_4_20)">
<path d="M6.5 6.75C8.51855 6.75 10.1562 5.23828 10.1562 3.375C10.1562 1.51172 8.51855 0 6.5 0C4.48145 0 2.84375 1.51172 2.84375 3.375C2.84375 5.23828 4.48145 6.75 6.5 6.75ZM9.75 7.5H8.35098C7.7873 7.73906 7.16016 7.875 6.5 7.875C5.83984 7.875 5.21523 7.73906 4.64902 7.5H3.25C1.45488 7.5 0 8.84297 0 10.5V10.875C0 11.4961 0.545898 12 1.21875 12H11.7812C12.4541 12 13 11.4961 13 10.875V10.5C13 8.84297 11.5451 7.5 9.75 7.5Z" fill="#246D7D"/>
</g>
<defs>
<clipPath id="clip0_4_20">
<rect width="13" height="12" fill="white"/>
</clipPath>
</defs>
</svg>
