<svg width="253" height="28" viewBox="0 0 253 28" fill="none" xmlns="http://www.w3.org/2000/svg">
<path d="M10.52 1.368C11.7787 1.368 12.984 1.592 14.136 2.04C15.3093 2.46667 16.2907 3.04267 17.08 3.768C17.8907 4.49333 18.3707 5.272 18.52 6.104C18.6267 6.65867 18.552 7.27733 18.296 7.96C18.04 8.62133 17.6347 9.208 17.08 9.72C16.5253 10.2107 15.8533 10.4773 15.064 10.52C14.7867 10.52 14.4347 10.488 14.008 10.424C13.5813 10.36 13.1653 10.232 12.76 10.04C12.376 9.848 12.0667 9.57067 11.832 9.208C12.152 9.03733 12.3653 8.856 12.472 8.664C12.5787 8.472 12.6107 8.28 12.568 8.088C12.4827 7.66133 12.2267 7.30933 11.8 7.032C11.3947 6.75467 10.8933 6.584 10.296 6.52C9.95467 6.47733 9.56 6.488 9.112 6.552C8.664 6.59467 8.248 6.744 7.864 7C7.50133 7.23467 7.24533 7.62933 7.096 8.184C7.01067 8.504 7.02133 8.856 7.128 9.24C7.256 9.60267 7.55467 9.95467 8.024 10.296C8.49333 10.616 9.208 10.8933 10.168 11.128C11.64 11.4693 13.0053 11.8427 14.264 12.248C15.544 12.6533 16.664 13.1547 17.624 13.752C18.584 14.3493 19.32 15.096 19.832 15.992C20.3653 16.8667 20.6107 17.9653 20.568 19.288C20.5467 20.1627 20.312 21.08 19.864 22.04C19.416 23 18.7653 23.896 17.912 24.728C17.0587 25.5387 16.0133 26.2 14.776 26.712C13.5387 27.224 12.1307 27.48 10.552 27.48C9.54933 27.48 8.51467 27.3947 7.448 27.224C6.38133 27.0533 5.368 26.7867 4.408 26.424C3.46933 26.0613 2.63733 25.5813 1.912 24.984C1.272 24.4293 0.813333 23.736 0.536 22.904C0.28 22.072 0.226667 21.24 0.376 20.408C0.525333 19.5547 0.898667 18.8293 1.496 18.232C2.11467 17.6347 2.968 17.304 4.056 17.24C3.84267 17.88 3.96 18.5093 4.408 19.128C4.87733 19.7253 5.57067 20.2373 6.488 20.664C7.40533 21.0693 8.408 21.3147 9.496 21.4C10.6267 21.4853 11.608 21.4427 12.44 21.272C13.2933 21.1013 13.7627 20.7493 13.848 20.216C13.9547 19.576 13.8267 19.064 13.464 18.68C13.1013 18.296 12.6 18.008 11.96 17.816C11.32 17.6027 10.6267 17.432 9.88 17.304C9.13333 17.1547 8.44 17.0053 7.8 16.856C6.94667 16.6213 6.08267 16.3227 5.208 15.96C4.35467 15.576 3.56533 15.096 2.84 14.52C2.136 13.944 1.56 13.24 1.112 12.408C0.664 11.576 0.429333 10.6053 0.408 9.496C0.386667 8.19467 0.653333 7.04267 1.208 6.04C1.76267 5.016 2.52 4.16267 3.48 3.48C4.44 2.776 5.528 2.25333 6.744 1.912C7.98133 1.54933 9.24 1.368 10.52 1.368Z" fill="#FF1111"/>
<path d="M47.8278 13.272C48.0411 15.256 47.9451 17.016 47.5398 18.552C47.1558 20.088 46.5478 21.4213 45.7158 22.552C44.9051 23.6613 43.9451 24.5787 42.8358 25.304C41.7264 26.008 40.5424 26.5413 39.2838 26.904C38.0464 27.2453 36.8198 27.416 35.6038 27.416C34.3878 27.416 33.1504 27.256 31.8918 26.936C30.6331 26.616 29.4384 26.1147 28.3078 25.432C27.1984 24.7493 26.2171 23.864 25.3638 22.776C24.5318 21.688 23.9131 20.3973 23.5078 18.904C23.1024 17.3893 23.0064 15.64 23.2198 13.656C23.3904 11.9493 23.8171 10.36 24.4998 8.888C25.1824 7.39467 26.0678 6.104 27.1558 5.016C28.2438 3.90667 29.4918 3.05333 30.8998 2.456C32.3078 1.83733 33.8118 1.54933 35.4118 1.592C35.5184 1.592 35.6784 1.51733 35.8918 1.368C36.1051 1.19733 36.3931 1.03733 36.7558 0.887999C37.1184 0.738666 37.5558 0.685333 38.0678 0.727999C39.0278 0.813332 40.0411 1.208 41.1078 1.912C42.1744 2.616 43.1878 3.55467 44.1478 4.728C45.1078 5.88 45.9184 7.192 46.5798 8.664C47.2411 10.136 47.6571 11.672 47.8278 13.272ZM35.6998 21.496C36.4464 21.4747 37.1504 21.368 37.8118 21.176C38.4944 20.984 39.1024 20.632 39.6358 20.12C40.1691 19.608 40.5958 18.8827 40.9158 17.944C41.2571 17.0053 41.4384 15.8 41.4598 14.328C41.4811 13.304 41.2571 12.312 40.7878 11.352C40.3184 10.392 39.6678 9.58133 38.8358 8.92C38.0038 8.23733 37.0544 7.84267 35.9878 7.736C34.8358 7.608 33.8544 7.72533 33.0438 8.088C32.2331 8.42933 31.5611 8.94133 31.0278 9.624C30.5158 10.2853 30.1211 11.032 29.8438 11.864C29.5664 12.696 29.3958 13.5387 29.3318 14.392C29.2038 15.864 29.3424 17.0693 29.7478 18.008C30.1531 18.9467 30.6971 19.672 31.3798 20.184C32.0624 20.696 32.7878 21.048 33.5558 21.24C34.3451 21.432 35.0598 21.5173 35.6998 21.496Z" fill="#FF00E6"/>
<path d="M68.1308 16.856C68.0454 16.8773 67.9174 16.9947 67.7468 17.208C67.5974 17.4213 67.4908 17.6453 67.4268 17.88C67.3201 18.2213 67.3521 18.4987 67.5228 18.712C67.9708 19.2453 68.5468 19.8747 69.2508 20.6C69.9548 21.304 70.6588 21.976 71.3628 22.616C72.0881 23.256 72.7068 23.7467 73.2188 24.088C72.8348 25.112 72.2268 25.9333 71.3948 26.552C70.5841 27.1493 69.6774 27.4373 68.6748 27.416C67.6721 27.3947 66.6908 26.9467 65.7308 26.072C65.6028 25.944 65.3574 25.6667 64.9948 25.24C64.6321 24.792 64.2161 24.2693 63.7468 23.672C63.2774 23.0747 62.8081 22.4773 62.3388 21.88C61.8694 21.2827 61.4641 20.76 61.1228 20.312C60.7814 19.864 60.5681 19.5867 60.4828 19.48C60.0774 18.9467 59.6934 18.8293 59.3308 19.128C58.9681 19.4267 58.7441 20.0453 58.6588 20.984C58.6161 21.5387 58.6161 22.1787 58.6588 22.904C58.7228 23.608 58.8081 24.2373 58.9148 24.792C59.0428 25.3467 59.1708 25.6773 59.2988 25.784C58.8508 26.1253 58.2961 26.4453 57.6348 26.744C56.9734 27.0427 56.2161 27.224 55.3628 27.288C55.0428 27.3093 54.6694 27.224 54.2428 27.032C53.8161 26.84 53.4428 26.5307 53.1228 26.104C52.8241 25.656 52.6641 25.1013 52.6428 24.44C52.6428 24.2693 52.6321 23.8213 52.6108 23.096C52.6108 22.3707 52.6001 21.4853 52.5788 20.44C52.5788 19.3733 52.5788 18.2747 52.5788 17.144C52.5788 16.0133 52.5681 14.9467 52.5468 13.944C52.5468 12.9413 52.5468 12.1307 52.5468 11.512C52.5468 10.8933 52.5468 10.584 52.5468 10.584C52.5468 9.32533 52.5148 8.28 52.4508 7.448C52.3868 6.59467 52.1308 5.944 51.6828 5.496C51.2774 5.09067 50.9681 4.504 50.7548 3.736C50.5628 2.968 50.4774 2.24267 50.4988 1.56C50.5841 1.58133 50.8401 1.61333 51.2668 1.656C51.6934 1.67733 52.1094 1.70933 52.5148 1.752C52.7921 1.752 53.1868 1.752 53.6988 1.752C54.2321 1.73067 54.7974 1.70933 55.3948 1.688C55.9921 1.66667 56.5468 1.656 57.0588 1.656C57.5708 1.63467 57.9548 1.61333 58.2108 1.592C58.4028 1.592 58.7548 1.592 59.2668 1.592C59.8001 1.57067 60.4188 1.56 61.1228 1.56C61.8268 1.56 62.5414 1.57067 63.2668 1.592C63.9921 1.592 64.6641 1.61333 65.2828 1.656C65.9014 1.69867 66.3814 1.752 66.7228 1.816C68.1308 2.072 69.2188 2.54133 69.9868 3.224C70.7548 3.90667 71.2988 4.728 71.6188 5.688C71.9601 6.648 72.1628 7.69333 72.2268 8.824C72.2694 9.784 72.1628 10.7867 71.9068 11.832C71.6508 12.8773 71.2134 13.848 70.5948 14.744C69.9761 15.64 69.1548 16.344 68.1308 16.856ZM58.7228 9.976C58.7228 10.6587 58.8828 11.1707 59.2028 11.512C59.5228 11.832 59.8214 12.024 60.0988 12.088C60.4828 12.1733 60.9734 12.184 61.5708 12.12C62.1681 12.0347 62.7654 11.8853 63.3628 11.672C63.9601 11.4373 64.4614 11.1387 64.8668 10.776C65.2934 10.4133 65.5068 9.99733 65.5068 9.528C65.5068 8.90933 65.2508 8.44 64.7388 8.12C64.2268 7.77867 63.5761 7.56533 62.7868 7.48C62.0188 7.39467 61.2508 7.416 60.4828 7.544C59.8854 7.62933 59.4374 7.896 59.1388 8.344C58.8401 8.792 58.7014 9.336 58.7228 9.976Z" fill="#AD00FF"/>
<path d="M96.516 9.944C96.6227 10.584 96.6973 11.2773 96.74 12.024C96.804 12.7707 96.804 13.6773 96.74 14.744C96.676 15.7893 96.5267 17.08 96.292 18.616C95.972 20.6853 95.1293 22.424 93.764 23.832C92.3987 25.2187 90.6813 26.1253 88.612 26.552C88.036 26.68 87.364 26.776 86.596 26.84C85.828 26.8827 85.06 26.9253 84.292 26.968C83.5453 26.9893 82.8733 27.0213 82.276 27.064C81.7427 27.1707 81.1027 27.2453 80.356 27.288C79.6093 27.3307 78.9053 27.32 78.244 27.256C77.5827 27.192 77.1027 27.0747 76.804 26.904C76.9747 26.6053 77.1133 26.1573 77.22 25.56C77.3267 24.9413 77.412 24.2693 77.476 23.544C77.54 22.8187 77.5613 22.1253 77.54 21.464L77.444 10.616C77.444 9.74133 77.4333 8.94133 77.412 8.216C77.412 7.49067 77.3907 6.92533 77.348 6.52C77.3053 6.072 77.1347 5.67733 76.836 5.336C76.5587 4.99467 76.356 4.65333 76.228 4.312C75.8867 3.37333 75.7373 2.456 75.78 1.56C75.8867 1.58133 76.1213 1.61333 76.484 1.656C76.868 1.67733 77.3053 1.70933 77.796 1.752C78.3293 1.77333 79.1613 1.80533 80.292 1.848C81.444 1.89067 82.6173 1.93333 83.812 1.976C83.812 1.976 83.9827 1.98667 84.324 2.008C84.6867 2.008 85.1347 2.02933 85.668 2.072C86.2013 2.11467 86.756 2.17867 87.332 2.264C87.908 2.328 88.4093 2.41333 88.836 2.52C90.2227 2.88267 91.3853 3.384 92.324 4.024C93.284 4.64267 94.052 5.31467 94.628 6.04C95.2253 6.76533 95.6733 7.48 95.972 8.184C96.2707 8.86667 96.452 9.45333 96.516 9.944ZM85.348 20.92C86.2227 20.7067 87.044 20.2907 87.812 19.672C88.6013 19.032 89.22 18.1787 89.668 17.112C90.1373 16.024 90.308 14.7013 90.18 13.144C90.0307 11.1173 89.4973 9.70933 88.58 8.92C87.684 8.13067 86.5107 7.72533 85.06 7.704C84.6547 7.68267 84.3347 7.94933 84.1 8.504C83.8653 9.05867 83.7053 9.95467 83.62 11.192C83.5773 12.0027 83.5453 12.6107 83.524 13.016C83.5027 13.4 83.492 13.72 83.492 13.976C83.5133 14.232 83.5133 14.5627 83.492 14.968C83.492 14.968 83.492 15.16 83.492 15.544C83.5133 15.928 83.5453 16.408 83.588 16.984C83.6307 17.5387 83.684 18.1147 83.748 18.712C83.812 19.288 83.8867 19.7787 83.972 20.184C84.0787 20.632 84.2813 20.888 84.58 20.952C84.8787 20.9947 85.1347 20.984 85.348 20.92Z" fill="#1400FF"/>
<path d="M124.078 13.272C124.291 15.256 124.195 17.016 123.79 18.552C123.406 20.088 122.798 21.4213 121.966 22.552C121.155 23.6613 120.195 24.5787 119.086 25.304C117.976 26.008 116.792 26.5413 115.534 26.904C114.296 27.2453 113.07 27.416 111.854 27.416C110.638 27.416 109.4 27.256 108.142 26.936C106.883 26.616 105.688 26.1147 104.558 25.432C103.448 24.7493 102.467 23.864 101.614 22.776C100.782 21.688 100.163 20.3973 99.7578 18.904C99.3524 17.3893 99.2564 15.64 99.4698 13.656C99.6404 11.9493 100.067 10.36 100.75 8.888C101.432 7.39467 102.318 6.104 103.406 5.016C104.494 3.90667 105.742 3.05333 107.15 2.456C108.558 1.83733 110.062 1.54933 111.662 1.592C111.768 1.592 111.928 1.51733 112.142 1.368C112.355 1.19733 112.643 1.03733 113.006 0.887999C113.368 0.738666 113.806 0.685333 114.318 0.727999C115.278 0.813332 116.291 1.208 117.358 1.912C118.424 2.616 119.438 3.55467 120.398 4.728C121.358 5.88 122.168 7.192 122.83 8.664C123.491 10.136 123.907 11.672 124.078 13.272ZM111.95 21.496C112.696 21.4747 113.4 21.368 114.062 21.176C114.744 20.984 115.352 20.632 115.886 20.12C116.419 19.608 116.846 18.8827 117.166 17.944C117.507 17.0053 117.688 15.8 117.71 14.328C117.731 13.304 117.507 12.312 117.038 11.352C116.568 10.392 115.918 9.58133 115.086 8.92C114.254 8.23733 113.304 7.84267 112.238 7.736C111.086 7.608 110.104 7.72533 109.294 8.088C108.483 8.42933 107.811 8.94133 107.278 9.624C106.766 10.2853 106.371 11.032 106.094 11.864C105.816 12.696 105.646 13.5387 105.582 14.392C105.454 15.864 105.592 17.0693 105.998 18.008C106.403 18.9467 106.947 19.672 107.63 20.184C108.312 20.696 109.038 21.048 109.806 21.24C110.595 21.432 111.31 21.5173 111.95 21.496Z" fill="#00D1FF"/>
<path d="M153.949 23.64C153.97 24.0667 154.023 24.4827 154.109 24.888C154.215 25.2933 154.343 25.592 154.493 25.784C154.301 25.976 154.002 26.2 153.597 26.456C153.213 26.712 152.765 26.9147 152.253 27.064C151.762 27.2347 151.239 27.3093 150.685 27.288C149.853 27.2453 149.181 26.8933 148.669 26.232C148.178 25.5707 147.922 24.7493 147.901 23.768C147.901 23.576 147.901 23.224 147.901 22.712C147.901 22.1787 147.901 21.6133 147.901 21.016C147.901 20.4187 147.901 19.928 147.901 19.544C147.901 19.1813 147.805 18.8293 147.613 18.488C147.442 18.1467 147.239 17.944 147.005 17.88C146.685 17.7733 146.418 17.9653 146.205 18.456C146.162 18.5627 146.023 18.8293 145.789 19.256C145.554 19.6613 145.287 20.1413 144.989 20.696C144.711 21.2507 144.445 21.8053 144.189 22.36C143.954 22.9147 143.794 23.3947 143.709 23.8C143.623 24.184 143.677 24.4187 143.869 24.504C143.783 24.7173 143.623 25.0267 143.389 25.432C143.175 25.8373 142.813 26.1893 142.301 26.488C141.81 26.7653 141.106 26.872 140.189 26.808C139.698 26.7653 139.069 26.4667 138.301 25.912C137.533 25.3573 136.797 24.344 136.093 22.872C135.431 21.464 134.887 20.5147 134.461 20.024C134.055 19.512 133.757 19.2773 133.565 19.32C133.394 19.3413 133.255 19.4587 133.149 19.672C133.063 19.8853 132.978 20.184 132.893 20.568C132.85 20.76 132.829 21.08 132.829 21.528C132.829 21.976 132.85 22.4773 132.893 23.032C132.935 23.5867 133.01 24.1093 133.117 24.6C133.245 25.0907 133.405 25.464 133.597 25.72C133.426 25.8267 133.117 26.008 132.669 26.264C132.242 26.52 131.751 26.7547 131.197 26.968C130.663 27.16 130.141 27.256 129.629 27.256C128.861 27.2347 128.221 27.032 127.709 26.648C127.197 26.2427 126.887 25.4533 126.781 24.28C126.759 24.088 126.749 23.544 126.749 22.648C126.749 21.752 126.749 20.6213 126.749 19.256C126.749 17.8907 126.749 16.4293 126.749 14.872C126.749 13.2933 126.749 11.736 126.749 10.2C126.749 8.664 126.749 7.256 126.749 5.976C126.77 4.696 126.781 3.672 126.781 2.904C126.781 2.136 126.781 1.752 126.781 1.752C127.015 1.70933 127.41 1.69867 127.965 1.72C128.519 1.74133 129.127 1.82667 129.789 1.976C130.45 2.12533 131.058 2.37067 131.613 2.712C132.167 3.032 132.551 3.49067 132.765 4.088C132.765 4.088 132.861 4.29067 133.053 4.696C133.266 5.08 133.543 5.592 133.885 6.232C134.226 6.85067 134.589 7.52267 134.973 8.248C135.378 8.97333 135.762 9.688 136.125 10.392C136.509 11.096 136.839 11.7147 137.117 12.248C137.415 12.7813 137.618 13.1547 137.725 13.368C138.087 13.9867 138.429 14.4133 138.749 14.648C139.09 14.8827 139.453 15.0107 139.837 15.032C140.626 15.032 141.383 14.424 142.109 13.208C142.215 13.016 142.429 12.6107 142.749 11.992C143.069 11.352 143.442 10.5947 143.869 9.72C144.295 8.84533 144.733 7.94933 145.181 7.032C145.65 6.11467 146.077 5.26133 146.461 4.472C146.845 3.66133 147.154 3.01067 147.389 2.52C147.645 2.008 147.773 1.752 147.773 1.752C147.922 1.73067 148.135 1.72 148.413 1.72C148.711 1.69867 149.031 1.70933 149.373 1.752C149.97 1.79467 150.599 1.912 151.261 2.104C151.943 2.296 152.53 2.59466 153.021 3C153.533 3.40533 153.821 3.94933 153.885 4.632C153.927 4.99467 153.959 5.592 153.981 6.424C154.002 7.23467 154.013 8.20533 154.013 9.336C154.013 10.4453 154.013 11.6293 154.013 12.888C154.013 14.1467 154.002 15.384 153.981 16.6C153.981 17.816 153.97 18.936 153.949 19.96C153.949 20.984 153.949 21.8267 153.949 22.488C153.949 23.128 153.949 23.512 153.949 23.64Z" fill="#00FFC2"/>
<path d="M175.781 4.632C175.824 5.12266 175.877 5.92267 175.941 7.032C176.027 8.12 176.091 9.37867 176.133 10.808C176.176 12.2373 176.187 13.7093 176.165 15.224C176.165 16.7173 176.112 18.136 176.005 19.48C175.92 20.824 175.76 21.944 175.525 22.84C175.141 24.312 174.075 25.4427 172.325 26.232C170.576 27.0213 168.379 27.416 165.733 27.416C163.963 27.416 162.459 27.0853 161.221 26.424C159.984 25.7627 159.024 24.856 158.341 23.704C157.68 22.5307 157.307 21.1867 157.221 19.672C157.179 18.9253 157.147 17.976 157.125 16.824C157.104 15.6507 157.083 14.392 157.061 13.048C157.061 11.6827 157.061 10.3387 157.061 9.016C157.061 7.69333 157.061 6.488 157.061 5.4C157.083 4.29067 157.093 3.40533 157.093 2.744C157.093 2.08267 157.093 1.752 157.093 1.752C157.328 1.70933 157.733 1.69867 158.309 1.72C158.907 1.74133 159.525 1.83733 160.165 2.008C160.891 2.17867 161.552 2.46667 162.149 2.872C162.768 3.27733 163.12 3.864 163.205 4.632C163.269 5.272 163.269 6.232 163.205 7.512C163.163 8.77067 163.12 10.2213 163.077 11.864C163.056 13.4853 163.099 15.1707 163.205 16.92C163.227 17.2827 163.237 17.6987 163.237 18.168C163.237 18.6373 163.301 19.096 163.429 19.544C163.579 19.992 163.867 20.3653 164.293 20.664C164.741 20.9627 165.424 21.112 166.341 21.112C167.259 21.112 167.952 20.984 168.421 20.728C168.912 20.472 169.264 20.12 169.477 19.672C169.691 19.224 169.819 18.7013 169.861 18.104C169.925 17.5067 169.979 16.8667 170.021 16.184C170.064 15.736 170.075 15.0747 170.053 14.2C170.053 13.3253 170.043 12.344 170.021 11.256C170 10.168 169.968 9.06933 169.925 7.96C169.883 6.85067 169.84 5.82667 169.797 4.888C169.755 3.94933 169.723 3.192 169.701 2.616C169.68 2.04 169.669 1.752 169.669 1.752C169.904 1.70933 170.309 1.69867 170.885 1.72C171.483 1.74133 172.112 1.83733 172.773 2.008C173.499 2.17867 174.16 2.47733 174.757 2.904C175.355 3.30933 175.696 3.88533 175.781 4.632Z" fill="#00FF1A"/>
<path d="M200.742 4.632C200.785 4.99467 200.806 5.61333 200.806 6.488C200.828 7.34133 200.838 8.36533 200.838 9.56C200.838 10.7547 200.838 12.0133 200.838 13.336C200.838 14.6587 200.828 15.9707 200.806 17.272C200.806 18.5733 200.796 19.7573 200.774 20.824C200.774 21.8907 200.774 22.7653 200.774 23.448C200.774 24.1093 200.785 24.4827 200.806 24.568C200.849 24.7387 200.817 25.016 200.71 25.4C200.604 25.7627 200.433 26.1147 200.198 26.456C199.964 26.776 199.665 26.968 199.302 27.032C198.961 27.1173 198.481 27.1173 197.862 27.032C197.265 26.968 196.657 26.808 196.038 26.552C195.441 26.2747 194.961 25.88 194.598 25.368C194.385 25.0693 194.054 24.6427 193.606 24.088C193.18 23.512 192.7 22.8933 192.166 22.232C191.654 21.5493 191.142 20.8987 190.63 20.28C190.14 19.64 189.724 19.096 189.382 18.648C189.041 18.1787 188.828 17.8907 188.742 17.784C188.55 17.4853 188.23 17.1867 187.782 16.888C187.356 16.568 187.014 16.4507 186.758 16.536C186.502 16.6213 186.31 16.888 186.182 17.336C186.054 17.7627 185.969 18.2213 185.926 18.712C185.884 19.032 185.862 19.5227 185.862 20.184C185.862 20.824 185.862 21.4853 185.862 22.168C185.884 22.8507 185.884 23.4053 185.862 23.832C185.841 24.5787 186.076 25.2933 186.566 25.976C186.396 26.0827 186.054 26.2533 185.542 26.488C185.03 26.7013 184.486 26.8933 183.91 27.064C183.334 27.2347 182.844 27.3093 182.438 27.288C181.756 27.2453 181.148 26.8933 180.614 26.232C180.102 25.5707 179.836 24.7493 179.814 23.768C179.814 23.576 179.804 23.0427 179.782 22.168C179.782 21.272 179.772 20.1627 179.75 18.84C179.75 17.5173 179.75 16.088 179.75 14.552C179.75 13.016 179.74 11.5013 179.718 10.008C179.718 8.49333 179.708 7.11733 179.686 5.88C179.686 4.62133 179.686 3.61867 179.686 2.872C179.686 2.12533 179.686 1.752 179.686 1.752C180.988 1.70933 182.086 1.80533 182.982 2.04C183.878 2.27467 184.625 2.70133 185.222 3.32C185.478 3.55467 185.852 3.97067 186.342 4.568C186.833 5.16533 187.366 5.848 187.942 6.616C188.54 7.36267 189.116 8.10933 189.67 8.856C190.246 9.60267 190.748 10.264 191.174 10.84C191.601 11.3947 191.878 11.7573 192.006 11.928C192.348 12.3547 192.689 12.696 193.03 12.952C193.393 13.1867 193.692 13.2613 193.926 13.176C194.438 13.0053 194.694 12.2907 194.694 11.032L194.63 1.752C194.865 1.70933 195.27 1.69867 195.846 1.72C196.444 1.74133 197.073 1.83733 197.734 2.008C198.46 2.17867 199.121 2.46667 199.718 2.872C200.316 3.27733 200.657 3.864 200.742 4.632Z" fill="#DBFF00"/>
<path d="M224.141 9.944C224.248 10.584 224.322 11.2773 224.365 12.024C224.429 12.7707 224.429 13.6773 224.365 14.744C224.301 15.7893 224.152 17.08 223.917 18.616C223.597 20.6853 222.754 22.424 221.389 23.832C220.024 25.2187 218.306 26.1253 216.237 26.552C215.661 26.68 214.989 26.776 214.221 26.84C213.453 26.8827 212.685 26.9253 211.917 26.968C211.17 26.9893 210.498 27.0213 209.901 27.064C209.368 27.1707 208.728 27.2453 207.981 27.288C207.234 27.3307 206.53 27.32 205.869 27.256C205.208 27.192 204.728 27.0747 204.429 26.904C204.6 26.6053 204.738 26.1573 204.845 25.56C204.952 24.9413 205.037 24.2693 205.101 23.544C205.165 22.8187 205.186 22.1253 205.165 21.464L205.069 10.616C205.069 9.74133 205.058 8.94133 205.037 8.216C205.037 7.49067 205.016 6.92533 204.973 6.52C204.93 6.072 204.76 5.67733 204.461 5.336C204.184 4.99467 203.981 4.65333 203.853 4.312C203.512 3.37333 203.362 2.456 203.405 1.56C203.512 1.58133 203.746 1.61333 204.109 1.656C204.493 1.67733 204.93 1.70933 205.421 1.752C205.954 1.77333 206.786 1.80533 207.917 1.848C209.069 1.89067 210.242 1.93333 211.437 1.976C211.437 1.976 211.608 1.98667 211.949 2.008C212.312 2.008 212.76 2.02933 213.293 2.072C213.826 2.11467 214.381 2.17867 214.957 2.264C215.533 2.328 216.034 2.41333 216.461 2.52C217.848 2.88267 219.01 3.384 219.949 4.024C220.909 4.64267 221.677 5.31467 222.253 6.04C222.85 6.76533 223.298 7.48 223.597 8.184C223.896 8.86667 224.077 9.45333 224.141 9.944ZM212.973 20.92C213.848 20.7067 214.669 20.2907 215.437 19.672C216.226 19.032 216.845 18.1787 217.293 17.112C217.762 16.024 217.933 14.7013 217.805 13.144C217.656 11.1173 217.122 9.70933 216.205 8.92C215.309 8.13067 214.136 7.72533 212.685 7.704C212.28 7.68267 211.96 7.94933 211.725 8.504C211.49 9.05867 211.33 9.95467 211.245 11.192C211.202 12.0027 211.17 12.6107 211.149 13.016C211.128 13.4 211.117 13.72 211.117 13.976C211.138 14.232 211.138 14.5627 211.117 14.968C211.117 14.968 211.117 15.16 211.117 15.544C211.138 15.928 211.17 16.408 211.213 16.984C211.256 17.5387 211.309 18.1147 211.373 18.712C211.437 19.288 211.512 19.7787 211.597 20.184C211.704 20.632 211.906 20.888 212.205 20.952C212.504 20.9947 212.76 20.984 212.973 20.92Z" fill="#FFB801"/>
<path d="M251.703 13.272C251.916 15.256 251.82 17.016 251.415 18.552C251.031 20.088 250.423 21.4213 249.591 22.552C248.78 23.6613 247.82 24.5787 246.711 25.304C245.601 26.008 244.417 26.5413 243.159 26.904C241.921 27.2453 240.695 27.416 239.479 27.416C238.263 27.416 237.025 27.256 235.767 26.936C234.508 26.616 233.313 26.1147 232.183 25.432C231.073 24.7493 230.092 23.864 229.239 22.776C228.407 21.688 227.788 20.3973 227.383 18.904C226.977 17.3893 226.881 15.64 227.095 13.656C227.265 11.9493 227.692 10.36 228.375 8.888C229.057 7.39467 229.943 6.104 231.031 5.016C232.119 3.90667 233.367 3.05333 234.775 2.456C236.183 1.83733 237.687 1.54933 239.287 1.592C239.393 1.592 239.553 1.51733 239.767 1.368C239.98 1.19733 240.268 1.03733 240.631 0.887999C240.993 0.738666 241.431 0.685333 241.943 0.727999C242.903 0.813332 243.916 1.208 244.983 1.912C246.049 2.616 247.063 3.55467 248.023 4.728C248.983 5.88 249.793 7.192 250.455 8.664C251.116 10.136 251.532 11.672 251.703 13.272ZM239.575 21.496C240.321 21.4747 241.025 21.368 241.687 21.176C242.369 20.984 242.977 20.632 243.511 20.12C244.044 19.608 244.471 18.8827 244.791 17.944C245.132 17.0053 245.313 15.8 245.335 14.328C245.356 13.304 245.132 12.312 244.663 11.352C244.193 10.392 243.543 9.58133 242.711 8.92C241.879 8.23733 240.929 7.84267 239.863 7.736C238.711 7.608 237.729 7.72533 236.919 8.088C236.108 8.42933 235.436 8.94133 234.903 9.624C234.391 10.2853 233.996 11.032 233.719 11.864C233.441 12.696 233.271 13.5387 233.207 14.392C233.079 15.864 233.217 17.0693 233.623 18.008C234.028 18.9467 234.572 19.672 235.255 20.184C235.937 20.696 236.663 21.048 237.431 21.24C238.22 21.432 238.935 21.5173 239.575 21.496Z" fill="#FF0000"/>
</svg>
