<svg width="18" height="13" viewBox="0 0 18 13" fill="none" xmlns="http://www.w3.org/2000/svg">
<path d="M16.5 13H1.5C0.671562 13 0 12.2725 0 11.375V1.625C0 0.727526 0.671562 0 1.5 0H16.5C17.3284 0 18 0.727526 18 1.625V11.375C18 12.2725 17.3284 13 16.5 13ZM4 3.92708V2.57292C4 2.34857 3.83209 2.16667 3.625 2.16667H2.375C2.16791 2.16667 2 2.34857 2 2.57292V3.92708C2 4.15143 2.16791 4.33333 2.375 4.33333H3.625C3.83209 4.33333 4 4.15143 4 3.92708ZM7 3.92708V2.57292C7 2.34857 6.83209 2.16667 6.625 2.16667H5.375C5.16791 2.16667 5 2.34857 5 2.57292V3.92708C5 4.15143 5.16791 4.33333 5.375 4.33333H6.625C6.83209 4.33333 7 4.15143 7 3.92708ZM10 3.92708V2.57292C10 2.34857 9.83209 2.16667 9.625 2.16667H8.375C8.16791 2.16667 8 2.34857 8 2.57292V3.92708C8 4.15143 8.16791 4.33333 8.375 4.33333H9.625C9.83209 4.33333 10 4.15143 10 3.92708ZM13 3.92708V2.57292C13 2.34857 12.8321 2.16667 12.625 2.16667H11.375C11.1679 2.16667 11 2.34857 11 2.57292V3.92708C11 4.15143 11.1679 4.33333 11.375 4.33333H12.625C12.8321 4.33333 13 4.15143 13 3.92708ZM16 3.92708V2.57292C16 2.34857 15.8321 2.16667 15.625 2.16667H14.375C14.1679 2.16667 14 2.34857 14 2.57292V3.92708C14 4.15143 14.1679 4.33333 14.375 4.33333H15.625C15.8321 4.33333 16 4.15143 16 3.92708ZM5.5 7.17708V5.82292C5.5 5.59857 5.33209 5.41667 5.125 5.41667H3.875C3.66791 5.41667 3.5 5.59857 3.5 5.82292V7.17708C3.5 7.40144 3.66791 7.58333 3.875 7.58333H5.125C5.33209 7.58333 5.5 7.40144 5.5 7.17708ZM8.5 7.17708V5.82292C8.5 5.59857 8.33209 5.41667 8.125 5.41667H6.875C6.66791 5.41667 6.5 5.59857 6.5 5.82292V7.17708C6.5 7.40144 6.66791 7.58333 6.875 7.58333H8.125C8.33209 7.58333 8.5 7.40144 8.5 7.17708ZM11.5 7.17708V5.82292C11.5 5.59857 11.3321 5.41667 11.125 5.41667H9.875C9.66791 5.41667 9.5 5.59857 9.5 5.82292V7.17708C9.5 7.40144 9.66791 7.58333 9.875 7.58333H11.125C11.3321 7.58333 11.5 7.40144 11.5 7.17708ZM14.5 7.17708V5.82292C14.5 5.59857 14.3321 5.41667 14.125 5.41667H12.875C12.6679 5.41667 12.5 5.59857 12.5 5.82292V7.17708C12.5 7.40144 12.6679 7.58333 12.875 7.58333H14.125C14.3321 7.58333 14.5 7.40144 14.5 7.17708ZM4 10.4271V9.07292C4 8.84857 3.83209 8.66667 3.625 8.66667H2.375C2.16791 8.66667 2 8.84857 2 9.07292V10.4271C2 10.6514 2.16791 10.8333 2.375 10.8333H3.625C3.83209 10.8333 4 10.6514 4 10.4271ZM13 10.4271V9.07292C13 8.84857 12.8321 8.66667 12.625 8.66667H5.375C5.16791 8.66667 5 8.84857 5 9.07292V10.4271C5 10.6514 5.16791 10.8333 5.375 10.8333H12.625C12.8321 10.8333 13 10.6514 13 10.4271ZM16 10.4271V9.07292C16 8.84857 15.8321 8.66667 15.625 8.66667H14.375C14.1679 8.66667 14 8.84857 14 9.07292V10.4271C14 10.6514 14.1679 10.8333 14.375 10.8333H15.625C15.8321 10.8333 16 10.6514 16 10.4271Z" fill="white"/>
</svg>
